<?xml version="1.0" encoding="utf-8"?>
<!-- Generator: Adobe Illustrator 28.1.0, SVG Export Plug-In . SVG Version: 6.00 Build 0)  -->
<svg version="1.1" id="Layer_1" xmlns="http://www.w3.org/2000/svg" xmlns:xlink="http://www.w3.org/1999/xlink" x="0px" y="0px"
	 viewBox="0 0 939.95 660.01" style="enable-background:new 0 0 939.95 660.01;" xml:space="preserve">
<style type="text/css">
	.st0{fill:url(#SVGID_1_);}
	.st1{fill:none;stroke:#435BAD;stroke-width:1.5;stroke-miterlimit:10;}
	.st2{fill:none;stroke:#FFFFFF;stroke-width:1.5;stroke-miterlimit:10;}
	.st3{opacity:0.39;}
	.st4{fill:#AAB8E8;}
	.st5{fill:#FFFFFF;}
	.st6{fill:#3D2496;}
	.st7{clip-path:url(#SVGID_00000074403957088179791160000011996436456348542104_);}
	.st8{fill:none;stroke:#000000;stroke-miterlimit:10;}
	.st9{fill:#00031A;}
	.st10{fill:none;stroke:#FFFFFF;stroke-miterlimit:10;}
	.st11{fill:#EC6158;}
	.st12{fill:#2B1C16;}
	.st13{fill:none;stroke:#6A5048;stroke-miterlimit:10;}
	.st14{fill:#B3BEE2;}
	.st15{fill:#435BAD;}
	.st16{fill:#FD7769;}
	.st17{fill:#231655;}
	.st18{fill:none;stroke:#75574C;stroke-miterlimit:10;}
	.st19{fill:#9C3B2F;}
	.st20{fill:#CBB2DD;}
	.st21{fill:#A39DCF;}
	.st22{fill:#B54A49;}
	.st23{fill:#FFDBD1;}
	.st24{fill:none;stroke:#E7A697;stroke-miterlimit:10;}
	.st25{fill:#1B0E08;}
	.st26{fill:#899DF5;}
	.st27{fill:#FFCAA1;}
	.st28{fill:none;stroke:#62252C;stroke-miterlimit:10;}
	.st29{fill:#678DFF;}
</style>
<linearGradient id="SVGID_1_" gradientUnits="userSpaceOnUse" x1="46.0798" y1="330.0776" x2="897.3381" y2="330.0776">
	<stop  offset="0" style="stop-color:#13121B"/>
	<stop  offset="0.1392" style="stop-color:#191527"/>
	<stop  offset="0.28" style="stop-color:#241C4C"/>
	<stop  offset="0.4724" style="stop-color:#30216A"/>
	<stop  offset="0.6805" style="stop-color:#3D2896"/>
	<stop  offset="0.8247" style="stop-color:#372187"/>
	<stop  offset="1" style="stop-color:#2A1B6A"/>
</linearGradient>
<rect x="46.08" y="46.32" class="st0" width="851.26" height="567.51"/>
<path class="st1" d="M482.49,164.28c-47.83-11.25-82.65-0.32-122.42,13.41c-19.61,6.77-39.45,13.92-60.11,16.64
	c-15.42,2.03-31,2.57-46.48,4.11c-16.09,1.6-32.18,3.62-47.97,7.17c-26.61,5.98-72.95,17-70.11,52.83
	c1.14,14.35,10.93,27.38,9.94,41.74c-1.27,18.4-18.43,32.65-29.68,45.65c-15.52,17.95-29.48,37.86-26.92,62.81
	c2.07,20.12,15.13,37.8,31.25,50.03s35.18,19.82,53.97,27.31c28.62,11.41,52.82,24.78,75.33,46c13.04,12.29,26.93,24.48,43.83,30.43
	c22.71,8.01,51.67,1.04,60.92-23.01c5.04-13.11,6.46-28.38,14.28-40.29c8.06-12.27,25.04-22.6,40.02-20.61
	c24.4,3.24,33.92,21.34,45.55,40.38c5.68,9.3,12.42,17.86,21.96,23.45c16.37,9.58,32.72,5.84,49.97,1.96
	c18.64-4.2,37.47-7.59,56.45-9.86c32.19-3.85,64.59-2.12,96.67,1.92c30.46,3.84,74.69,23.87,99.82-3.31
	c11.01-11.91,13.2-28.21,9.19-43.42c-5.74-21.8-18.11-46-17.44-68.64c0.98-33.42,16.05-55.67,34.46-81.79
	c8.82-12.51,15.61-26.4,15.29-42.05c-0.73-36-23.3-63.64-46.83-88.46c-23.48-24.76-46.93-52.98-70.69-74.94"/>
<path class="st2" d="M507.44,521.66c0,5.23-4.24,9.47-9.47,9.47c-5.23,0-9.47-4.24-9.47-9.47c0-5.23,4.24-9.47,9.47-9.47
	C503.2,512.19,507.44,516.43,507.44,521.66z"/>
<g class="st3">
	<g>
		<path class="st4" d="M784.67,275.61H529.99c-3.46,0-6.27-2.81-6.27-6.27V143.43h267.23v125.91
			C790.95,272.8,788.14,275.61,784.67,275.61z"/>
		<g>
			<path class="st5" d="M784.68,124.45c3.46,0,6.27,2.81,6.27,6.27v138.62c0,3.46-2.81,6.27-6.27,6.27H529.99
				c-3.46,0-6.27-2.81-6.27-6.27V130.72c0-3.46,2.81-6.27,6.27-6.27H784.68 M784.68,122.95H529.99c-4.29,0-7.77,3.49-7.77,7.77
				v138.62c0,4.29,3.49,7.77,7.77,7.77h254.69c4.29,0,7.77-3.49,7.77-7.77V130.72C792.45,126.43,788.96,122.95,784.68,122.95
				L784.68,122.95z"/>
		</g>
		<g>
			<path class="st5" d="M536.36,130.42c2.25,0,4.07,1.82,4.07,4.07c0,2.25-1.82,4.07-4.07,4.07s-4.07-1.82-4.07-4.07
				C532.29,132.24,534.11,130.42,536.36,130.42 M536.36,128.92c-3.07,0-5.57,2.5-5.57,5.57c0,3.07,2.5,5.57,5.57,5.57
				c3.07,0,5.57-2.5,5.57-5.57C541.93,131.42,539.43,128.92,536.36,128.92L536.36,128.92z"/>
		</g>
		<g>
			<path class="st5" d="M552.15,130.42c2.25,0,4.07,1.82,4.07,4.07c0,2.25-1.82,4.07-4.07,4.07c-2.25,0-4.07-1.82-4.07-4.07
				C548.08,132.24,549.9,130.42,552.15,130.42 M552.15,128.92c-3.07,0-5.57,2.5-5.57,5.57c0,3.07,2.5,5.57,5.57,5.57
				c3.07,0,5.57-2.5,5.57-5.57C557.72,131.42,555.22,128.92,552.15,128.92L552.15,128.92z"/>
		</g>
		<line class="st2" x1="523.72" y1="143.43" x2="790.95" y2="143.43"/>
	</g>
	<path class="st6" d="M754.46,251.98c-5-8.36-10.31-17.03-18.53-22.13c-8.22-5.1-20.25-5.29-26.38,2.25
		c-5.44,6.68-4.43,16.43-3.12,25c-6.05-7.73-13.14-14.61-21-20.41c-6.07-4.47-12.77-8.36-20.14-9.76
		c-7.65-1.46-16.39,0.15-22.67,4.88c-8.57,6.46-8.44,16.63-7.6,26.44c-10.4-19.72-21.97-39.28-37.98-55.04
		c-4.14-4.08-9.02-7.61-14.62-9.17c-3.21-0.9-6.84-1.07-9.72,0.61c-4.38,2.56-5.54,8.32-5.66,13.39
		c-0.15,6.12,0.55,12.25,2.09,18.17c-2.79-3-6.48-5.23-10.51-6c-9.27-1.77-18.42,5.24-18.95,14.75c-0.55,9.9,5.47,19.35,10.08,27.67
		c1.75,3.17,3.56,6.33,5.54,9.36c0.39,0.59,1.86,3.53,2.76,3.53c0,0,209.68,0,209.68,0C763.3,268.13,758.88,259.36,754.46,251.98z"
		/>
	<g>
		<g>
			<defs>
				<path id="SVGID_00000059312179275164511230000009257945512483969930_" d="M784.67,275.61H529.99c-3.46,0-6.27-2.81-6.27-6.27
					V130.72c0-3.46,2.81-6.27,6.27-6.27h254.69c3.46,0,6.27,2.81,6.27,6.27v138.62C790.95,272.8,788.14,275.61,784.67,275.61z"/>
			</defs>
			<clipPath id="SVGID_00000035498224735281891330000012370977943467383213_">
				<use xlink:href="#SVGID_00000059312179275164511230000009257945512483969930_"  style="overflow:visible;"/>
			</clipPath>
			<g style="clip-path:url(#SVGID_00000035498224735281891330000012370977943467383213_);">
				<polygon class="st5" points="772.81,266.23 702.68,131.83 682.75,130.65 667.1,143.43 626.83,172.7 672.09,305.34 				"/>
				<path class="st8" d="M641.05,170.77c3.91,3.26,9.36,4.59,14.34,3.49"/>
				<path class="st8" d="M660.29,172.7c4.9-1.65,9.25-4.9,12.22-9.13c2.97-4.23,4.54-9.43,4.42-14.6"/>
				<path class="st9" d="M753.67,216.26c-12.13-23.14-48.55-96.07-58.15-92.48c-11.02,4.12-23.42,14.74-23.42,14.74
					s5.94,19.01,6.39,20.81c1.65,6.57,3.35,13.13,5.1,19.68c4.35,16.3,8.23,32.84,13.6,48.84c5.46,16.25,11.51,32.31,18.03,48.17
					c2.61,6.36,4.71,13.81,9.69,18.78c2.82,2.87,6.77,4.88,10.78,4.52c2.77-0.24,5.31-1.56,7.78-2.85
					c10.84-5.68,41.04-19.21,41.04-19.21S768.97,245.45,753.67,216.26z"/>
				<path class="st9" d="M691.8,305.2c-2.95-10.74-8-20.63-11.74-31.07c-4.89-13.66-9.24-27.51-14.28-41.11
					c-7.7-20.75-18.61-49.45-26.97-69.95c0,0-15.32,8.79-18.41,10.92c-3.09,2.13-2.42,7.2-2.42,7.2
					c12.19,45.47,49.12,148.75,49.12,148.75c4.37-2.31,15.22-8.4,19.59-10.71C692.46,316.19,693.46,311.24,691.8,305.2z"/>
				<path class="st10" d="M623.45,172.08c14.16,21.76,25.19,39.47,39.95,60.83"/>
				<path class="st10" d="M691.32,129.28c2.94,28.86,4.73,57.84,5.37,86.84"/>
			</g>
		</g>
		<g>
			<g>
				<path class="st11" d="M544.31,283.35c-2.95,2.25-5.99,4.39-9.11,6.42c-3,1.95-6.22,3.61-9.17,5.63
					c-0.73,0.5-1.41,1.06-2.09,1.62c-2.47,2.05-4.97,4.12-6.93,6.66c-0.26,0.34-0.52,0.69-0.87,0.93c-0.35,0.24-0.83,0.36-1.21,0.17
					c-0.4-0.19-0.6-0.64-0.72-1.07c-0.48-1.78,0.01-3.69,0.73-5.38c0.47-1.09,1.04-2.14,1.53-3.21c0.41-0.89,0.95-1.84,0.96-2.83
					c-7.95,1.95-14.9,6.65-22.38,9.96c-1.53,0.68-4.65,0.53-4.98-0.78c-0.43-1.74,10.64-7.54,15.95-11.69
					c-3.7,1.22-7.62,2.48-11.08,4.3c-2.39,1.26-4.95,2.26-7.63,2.67c-1.51,0.23-4.91,0.39-3.83-2.12c0.32-0.74,1-1.26,1.66-1.73
					c5.12-3.62,10.96-5.83,16.26-9.17c-5.58,1.25-10.99,4.22-16.66,3.53c-0.55-0.07-1.14-0.19-1.52-0.6
					c-0.58-0.62-0.69-1.37-0.15-2.02c0.54-0.65,1.36-1,2.14-1.33c5.74-2.39,11.75-5.08,17.5-7.47c-2.94,0.32-5.76,1.3-8.63,1.99
					c-2.87,0.69-5.92,1.1-8.76,0.28c-0.91-0.26-1.98-1.04-1.62-1.93c0.17-0.43,0.62-0.66,1.04-0.86c7.05-3.36,14.1-6.72,21.15-10.08
					c1.98-0.94,3.96-1.89,5.97-2.75c4.37-1.88,8.59-4.03,12.97-5.91c4.6-1.97,9.22-3.88,13.87-5.73"/>
				<path class="st8" d="M517.3,292.25c2.14-0.57,4.31-1.06,6.48-1.48"/>
				<path class="st8" d="M505.73,289.72c3.01-1.44,6.1-2.72,9.24-3.83"/>
				<path class="st8" d="M501.41,283.63c2.46-1.07,4.91-2.13,7.37-3.2"/>
				<path class="st8" d="M499.95,276.85c1.81-0.66,3.57-1.44,5.27-2.33"/>
			</g>
			<path class="st9" d="M620.41,173.99c-5.25,3.5-10.44,7.4-13.77,11.02c-5.34,5.81-36.74,43.87-36.74,43.87s-32.16,19.4-50.6,30.11
				l20.16,32.84c0,0,37.37-13.43,56.43-26.82c17.32-12.17,50.49-52.04,50.49-52.04"/>
			<line class="st8" x1="633.55" y1="228.89" x2="623.45" y2="197.47"/>
			<line class="st8" x1="536.26" y1="249.01" x2="558.62" y2="283.75"/>
			<line class="st8" x1="533.52" y1="282.15" x2="552.07" y2="273.56"/>
			<path class="st8" d="M545.94,273.13c0.09,0.85-0.52,1.62-1.37,1.71c-0.85,0.09-1.62-0.52-1.71-1.37
				c-0.09-0.85,0.52-1.62,1.37-1.71C545.08,271.66,545.84,272.28,545.94,273.13z"/>
			<circle class="st8" cx="536.88" cy="275.69" r="1.55"/>
			<path class="st8" d="M569.68,229.35c-0.03-0.21-0.05-0.42-0.08-0.63c4.28-1.28,8.37-3.22,12.08-5.71"/>
			<path class="st8" d="M584.81,192.33c6.08-7.31,13.52-13.49,21.83-18.11"/>
			<path class="st8" d="M589.71,175.63c5.75-4.28,12.04-7.84,18.67-10.57"/>
		</g>
		<g>
			<path class="st11" d="M651.22,115.86l4.49,13.3l16.02,15.5c0,0,0.42,9.22-8.65,18.89c-9,9.59-18.74,3.15-18.74,3.15l-11.63-17.11
				"/>
			<path class="st11" d="M613.71,150.53c-1.84-5.91-4.17-18.64-3.99-23.5c0.15-4.11,1.38-8.13,4.09-11.3
				c3.48-4.09,11.67-2.62,16.9-3.12c8.59-0.82,13.95,9.36,16.37,16.65c1.86,5.6,2.74,11.37,0.85,17.09
				c-3.09,9.29-13,18.69-23.49,16.15C618.74,161.12,615.49,156.25,613.71,150.53z"/>
			<path class="st12" d="M659.33,114.2c-1.38-1.47-3.27-2.63-3.89-4.55c-0.34-1.06-0.87-4.25-1.21-5.31
				c-1.92-5.93-6.89-7.91-12.53-6.94c-0.6-5.67-6.62-6.22-11.55-6.27c-2.06-0.02-4.15-0.22-5.99-1.21
				c-1.95-1.04-3.71-2.51-5.99-2.73c-2.03-0.19-4.12,0.48-5.8,1.58c-5.85,3.85-7.53,11.3-14.7,13.54c-2.27,0.71-4.63,0.92-6.59,2.41
				c-1.46,1.11-2.55,2.77-2.75,4.59c-0.29,2.6,1.43,4.18,3.2,5.77c2.07,1.85,3.28,4.2,3.11,7.01c-0.1,1.7-0.56,3.36-0.83,5.04
				c-0.77,4.79,0.76,9.31,4.76,12.21c0.84,0.61,1.99,1.18,5.08,1.85c2.18,0.47,7.84-0.34,7.84-0.34s-1.4-8.14-1.37-11.31
				c0.02-3.01,0.94-5.82,2.71-8.23c1.5-2.06,4.8-2.78,7.25-2.67c3.67,0.16,7.18,2.19,10.83,1.76c1.52-0.18,2.96-0.82,4.15-1.77
				c4.91,3.18,9.99,7.85,11.12,13.55c0.06,0.29,0.78,3.66,0.52,3.72c4.21-0.89,9.51-1.23,11.41-5.82c0.65-1.59,0.32-3.25,0.82-4.86
				c0.41-1.33,1.6-2.3,2.15-3.58C662.15,119.15,661.17,116.16,659.33,114.2z"/>
			<g>
				<path class="st11" d="M641.83,131.48c0.22-3.66,5.28-6.34,8.48-5.05c7.71,3.11,4.53,17.02-2.79,18.08
					c-2.07,0.3-4.99-0.62-5.63-2.98"/>
				<line class="st8" x1="650.64" y1="132.7" x2="643.68" y2="138.53"/>
				<path class="st8" d="M645.46,127.09c-1.68,0.92-3.06,2.38-3.92,4.14"/>
				<path class="st8" d="M654.34,138.16c-1.12,2.96-3.31,6.05-6.59,6.46c-2.28,0.29-4.83-0.81-5.66-3.19"/>
			</g>
			<path class="st8" d="M639.25,159.22c0,0,3.75-2.38,6.21-7.62"/>
			<path class="st13" d="M613.85,120.21c-2.43,1.31-3.49,4.16-5.13,6.37c-2.65,3.58-7.25,5.62-11.69,5.18"/>
			<path class="st13" d="M635.47,118.3c2.2-2.03,3.78-4.72,4.48-7.63"/>
		</g>
	</g>
</g>
<g class="st3">
	<g>
		<path class="st14" d="M843.02,435.5H651.11c-3.46,0-6.27-2.81-6.27-6.27V293.24h204.46v135.99
			C849.29,432.69,846.48,435.5,843.02,435.5z"/>
		<g>
			<path class="st5" d="M843.02,274.26c3.46,0,6.27,2.81,6.27,6.27v148.7c0,3.46-2.81,6.27-6.27,6.27H651.11
				c-3.46,0-6.27-2.81-6.27-6.27v-148.7c0-3.46,2.81-6.27,6.27-6.27H843.02 M843.02,272.76H651.11c-4.29,0-7.77,3.49-7.77,7.77
				v148.7c0,4.29,3.49,7.77,7.77,7.77h191.91c4.29,0,7.77-3.49,7.77-7.77v-148.7C850.79,276.25,847.3,272.76,843.02,272.76
				L843.02,272.76z"/>
		</g>
		<path class="st2" d="M661.55,284.31c0,2.25-1.82,4.07-4.07,4.07c-2.25,0-4.07-1.82-4.07-4.07c0-2.25,1.82-4.07,4.07-4.07
			C659.73,280.23,661.55,282.06,661.55,284.31z"/>
		<path class="st2" d="M677.34,284.31c0,2.25-1.82,4.07-4.07,4.07c-2.25,0-4.07-1.82-4.07-4.07c0-2.25,1.82-4.07,4.07-4.07
			C675.52,280.23,677.34,282.06,677.34,284.31z"/>
		<line class="st2" x1="644.83" y1="293.24" x2="849.29" y2="293.24"/>
	</g>
	<path class="st15" d="M796.59,380.73c-4.68-0.82-6.01,11.77-3.76,15.96c-6.17-8.82-13.97-22.32-20.14-31.14
		c-6.92-9.89-15.18-22.21-27.65-25.43c-11.23-2.9-17.09,6.88-17.27,16.87c-0.17,9.56,0.79,19.21,2.57,28.6
		c1.93,10.24,4.44,21.9,10.01,30.84c-5.92-9.5-15.41-12.71-26-11.83c-4.93,0.41-10.07,2.07-13.18,5.92
		c-4.98,6.16-3.11,17.34-0.99,24.98c4.63,0,9.27,0,13.9,0c24.64,0,122.27,0.04,122.27,0.04S811.78,383.39,796.59,380.73z"/>
	<g>
		<g>
			<path class="st16" d="M655,362.99c-20.31,0.3-40.45-3.99-59.88-9.92c-19.43-5.92-54.84-18.93-54.84-18.93l-10.11,30.52
				c0,0,52.34,33.15,121.98,38.82"/>
			<path class="st17" d="M698.5,371.28c-13.54-11.49-42.87-10.67-51.28-10.34c-8.41,0.33-23.4-2.16-23.4-2.16l-5.52,45.98
				c0,0,31.14,5.23,48.47,6.49"/>
			<path class="st17" d="M660.35,382.31c2.13,5.99,1.16,14.82,1.18,21.18c0.02,5.67,2.02,8.83,2.85,14.44
				c1,6.71,4.81,11.5,8.82,17.57h86.25l-4.54-47.82l-11.74-16.97l-24.79-6.61l-55.96,14.72"/>
			<path class="st18" d="M687.43,370.72c-0.86,3.04-1.49,6.44-0.96,9.59c0.61,3.69,2.95,6.01,6.29,7.38"/>
			<path class="st18" d="M696.99,388.7c15.29,2.74,31.37-8.19,32.91-22.1"/>
			<path class="st16" d="M811.98,429.99c-1.24-3.6-3.57-6.72-5.97-9.68c-6.59-8.14-13.98-15.65-22.01-22.38l-28.86,26.27L773,441.52
				l-20.86,37.81l27.67,7.9c0,0,21.17-23.38,29.28-36.42C813.07,444.4,814.46,437.17,811.98,429.99z"/>
			<path class="st16" d="M757.66,470.86c0,0-12.1,17.41-13.32,20.56c-1.1,2.82-1.7,6.36-2.13,9.37c-1.19,8.29,3.26,16.82,6.61,20.85
				c0.38,0.45,0.94,0.75,1.5,0.85c1.24,0.23,1.74-0.41,1.71-1.88c0.68,0.92,1.36,1.84,2.03,2.77c0.28,0.38,0.57,0.78,0.98,0.97
				c0.77,0.38,1.73-0.08,2.33-0.84c0.59-0.75,0.89-1.73,1.18-2.68c0.72,1.04,1.83,2.13,2.91,1.49c1.08-0.64,2.01-2.94,1.76-4.26
				c0.35,1.16,1.89,1.19,2.74,0.35c0.84-0.85,1.15-2.17,1.4-3.41c0.63-3.13,1.23-6.35,2.76-9.08c1.02-1.82,2.41-3.33,3.62-5
				c3.94-5.43,5.89-12.34,7.16-19.15"/>
			<path class="st8" d="M765.6,497.7c-0.55,1.21-1.09,2.41-1.64,3.62c-0.44,0.98-0.89,1.96-1.24,2.98
				c-1.59,4.53-1.32,9.71,0.71,14.02"/>
			<path class="st8" d="M756.49,497.25c-1.11,5.48-1.56,12.07-0.77,16.2c0.51,2.67,1.68,5.21,3.11,7.5"/>
			<path class="st8" d="M748.52,495.19c0,0-0.71,4.04-0.88,6.33c-0.53,7.27,0.43,14.28,4.39,19.67"/>
			<g>
				<path class="st16" d="M537.8,365.19c-2.18-0.21-4.35-0.42-6.53-0.63c-1.95-0.19-3.91-0.38-5.78-0.98
					c-1.24-0.4-2.42-0.97-3.6-1.54c-4.84-2.35-7.31-3.06-11.94-5.78c-2.66-1.57-5.38-3.04-8.21-4.26c-2.77-1.2-5.65-1.85-8.22-3.47
					c-0.22-0.14-0.45-0.3-0.56-0.54c-0.08-0.19-0.07-0.4-0.04-0.6c0.59-4.18,9.12-3.22,12.43-2.3c1,0.28,2.04,0.61,3.05,0.41
					c0.07-1.33-0.52-2.6-1.17-3.77c-1.91-3.42-4.7-6.15-7.22-9.13c-2.33-2.75-4.69-5.5-6.84-8.41c-2.01-2.72-4.08-8.63-2.5-9.35
					c1.58-0.72,0.74,0.72,1.24,0.79c-1.02-0.63-0.63-3.14,0.1-4.13c0.73-0.99,2.76,0.51,3.47,1.47c-0.73-0.92-0.49-3,0.26-3.37
					c1.09-0.54,2.38,0.19,3.4,0.8c1.01,0.61,1.99,1.36,3.17,1.57c-0.3-0.75-0.48-1.54-0.53-2.35c0.58-0.7,1.69-0.34,2.46,0.08
					c15.79,8.6,29.26,21.63,46.05,29.3"/>
				<path class="st8" d="M505.1,338.52c1.77,2.54,2.97,5.6,3.9,9.35"/>
				<path class="st8" d="M491.98,314.73c2.1,2.61,4.9,4.41,7.34,6.65c3.89,3.56,7.59,7.31,11.35,11"/>
				<path class="st8" d="M495.49,312.7c1.2,1.13,2.48,2.19,3.82,3.15c1.44,1.03,2.95,1.96,4.43,2.93c4.24,2.76,8.29,5.82,12.1,9.14"
					/>
				<path class="st8" d="M502.88,312.29c1.33,1.27,3.02,2.1,4.65,2.96c5.1,2.71,9.88,6.04,14.19,9.88"/>
				<path class="st8" d="M538.44,366.18c0,0-8.92-1.21-12.57-2.17"/>
			</g>
			<path class="st17" d="M735.91,368.82c6.15,0.59,12.29,1.17,18.14,3.38c7.39,2.79,13.81,8.03,19.86,13.39
				c6.32,5.6,12.77,13.22,18.91,19.07l-31.52,27.58l-22.32-21.75"/>
			<path class="st8" d="M773,441.52c0,0,4.66-5.97,9.39-9.28"/>
			<line class="st18" x1="752.14" y1="423.3" x2="785.01" y2="396.69"/>
			<line class="st18" x1="630.36" y1="406.69" x2="635.14" y2="360.3"/>
			<path class="st18" d="M660.35,397.93c0,0,2.18,9.9,2.78,14.15"/>
			<path class="st18" d="M737.88,410.41c6.83,5.27,23.43,21.83,23.43,21.83"/>
		</g>
		<g>
			<path class="st16" d="M702.81,335.91l14.69,5.95l-0.86,9.79l7.4,14.31c0,0-3.61,13.5-19.83,16.86c-13.69,2.84-13.38-6-13.38-6
				l-6.52-18.82"/>
			<path class="st16" d="M671.78,343.45c2.17-7.34,3.34-11.85,6.12-17.18c2.35-4.51,6.45-11.05,11.16-13.16
				c6.06-2.72,13,0.62,19.11,2.84c10.03,3.65,12.34,15.51,11.18,24.95c-0.9,7.25-5.13,10.83-10.28,16.21
				c-6.74,7.03-23.32,13.03-31.89,8.65C670.77,362.48,669.48,351.23,671.78,343.45z"/>
			<path class="st19" d="M776.7,387.83c3.95-1.3,5.89-5.94,5.67-9.24c-0.35-5.32-2.84-8.06-3.25-11.34
				c-0.27-2.14,0.37-4.3,0.19-6.45c-0.3-3.54-2.87-6.63-6.05-8.23c-3.18-1.6-6.87-1.89-10.42-1.57c-2.72,0.24-5.45,0.82-8.15,0.44
				c-2.26-0.32-4.37-1.3-6.33-2.45c-3.48-2.04-6.65-4.69-8.88-8.04c-3.81-5.7-4.62-12.86-7.55-19.06c-1.48-3.12-3.53-5.96-5.99-8.38
				c-5.97-5.88-11.65-8.06-20.12-8.34c-5.8-0.19-13.86,0.58-18.3,5.99c0,0-8.58,0.22-12.67,4.54c-4.86,5.13-4.51,12.55-0.27,18.46
				c2.19-3.6,4.06-7.4,7.27-10.17c-0.37,0.58-0.19,1.4,0.28,1.9c0.47,0.5,1.18,0.73,1.87,0.78c1.83,0.15,3.57-0.77,5.18-1.65
				c-0.54,1.45-0.78,3.03-0.67,4.58c0.02,0.33,0.07,0.67,0.28,0.92c0.25,0.28,0.65,0.36,1.02,0.39c2.53,0.21,5.13-1,6.59-3.08
				c-0.69,1.88-1.3,4.24,0.1,5.68c0.98,1.02,2.65,1.09,3.96,0.56c1.31-0.53,2.35-1.56,3.36-2.55c-0.48,0.48,0.15,3.19,0.27,3.82
				c0.26,1.37,0.68,2.7,1.14,4.01c1.43,4.03,3.2,7.96,5.49,11.57c2.37,3.73,5.75,6.57,8.17,10.21c1.53,2.31,2.83,4.83,4.89,6.68
				c2.53,2.27,6.03,3.98,9.36,4.66c3.35,0.68,6.82,0.37,10.21,0.26C755.9,372.32,765.41,378.6,776.7,387.83"/>
			<path class="st19" d="M747.45,306.62c-0.72-1.78-1.78-3.42-3.13-4.66c-4.89-4.5-15.54-4.21-19.19,1.91
				c-2,3.36-1.03,7.68,0.49,11.29l2.99,6.57c4.17,2.27,9.46,2.37,13.71,0.25c3.55-1.77,6.06-5.02,6.24-9.06
				C748.66,310.85,748.27,308.64,747.45,306.62z"/>
			<g>
				<path class="st16" d="M703.95,344.73c1.02-3.03,5.89-4.14,8.29-2.32c5.79,4.38-0.06,15.36-6.46,14.59
					c-1.81-0.22-4.06-1.66-4.06-3.79"/>
				<line class="st8" x1="711.08" y1="347.77" x2="703.9" y2="351.09"/>
				<path class="st8" d="M708,341.87c-1.62,0.39-3.12,1.31-4.24,2.59"/>
				<path class="st8" d="M712.96,353.21c-1.62,2.23-4.16,4.34-7.02,3.94c-1.98-0.28-3.88-1.78-4.04-3.97"/>
			</g>
			<path class="st8" d="M687.65,367.64c0,0,6.75-0.32,13.58-4.94"/>
		</g>
		<path class="st8" d="M809.9,469.99c6.92-7.03,11.82-16.02,13.98-25.65"/>
		<path class="st8" d="M825.74,466.07c2.09-4.13,3.43-8.63,3.92-13.23"/>
	</g>
	<g>
		<g>
			<path class="st11" d="M690.35,245.61c0,0-11.81,5.42-19.75,9.01c-4.49,2.03-12.01,7.6-14.57,11.83
				c-3.27,5.39-4.12,12.05-3.75,17.54c0.25,3.64,1.91,7.76,4.35,11.73c1.61,2.61,3.32,5.34,4.81,4.99c1.49-0.35,0.96-4.02,0.96-4.02
				c0.01,0.22,1.77,3.7,2.18,3.97c0.55,0.37,1.19,0.69,1.76,0.4c0.77-0.4,1.28-0.84,1.65-1.62c0.31-0.66,0.34-1.35,0.4-2.08
				c0.06-0.67,0-2.28-0.03-2.96c0.33,0.73,0.65,3.02,1.27,2.9c0.63-0.12,1.65-0.64,2.21-1.33c1.09-1.33,1.67-3,2.23-4.63
				c0.01,0.39,0.01,0.8,0.16,1.16c0.15,0.37,0.47,0.69,0.86,0.72c0.5,0.04,2.52-1.44,2.81-1.84c1.27-1.73,1.75-4.04,2.67-5.98
				c0.77-1.62,1.52-2.76,2.63-4.17c1.01-1.28,2.55-2.87,4.03-3.64c3-1.57,4.84-2,7.91-3.45c2.59-1.22,5.12-2.73,6.91-5.02"/>
			<path class="st8" d="M673.81,292.03c0.23-2.58,0.54-5.16,0.95-7.72c0.27-1.71,0.58-3.43,1.26-5.02c1.12-2.6,3.15-4.69,5.13-6.71"
				/>
			<path class="st8" d="M668.64,294.97c-1-4.31-0.9-8.79-0.78-13.21c0.03-1.22,0.06-2.46,0.36-3.64c0.51-2.05,1.75-3.83,2.96-5.55"
				/>
			<path class="st8" d="M662.53,297.56c-1.38-4.29-2.77-8.62-3.16-13.11c-0.07-0.86-0.11-1.72-0.08-2.59
				c0.11-3.22,1.16-6.36,2.75-9.17"/>
		</g>
		<path class="st9" d="M700.4,181.56l20.79,39.22l-46.39,31.77l30.53,24.05c0,0,52.06-16.95,66.24-25.35
			c11.13-6.6,15.91-23.74-5.54-51.7c-21.45-27.96-36.25-44.54-40.65-49.2c-9.47-10.03-20.73-14.2-31.22-8.92"/>
		<polyline class="st8" points="700.4,181.56 721.19,220.78 674.8,252.55 		"/>
		<path class="st8" d="M701.6,265.79c0,0.86-0.69,1.55-1.55,1.55c-0.86,0-1.55-0.69-1.55-1.55c0-0.86,0.69-1.55,1.55-1.55
			C700.91,264.24,701.6,264.93,701.6,265.79z"/>
		<circle class="st8" cx="709.63" cy="260.96" r="1.55"/>
		<path class="st8" d="M691.18,265.45c0.17,0.13,20-9.86,20-9.86"/>
		<path class="st8" d="M692.26,240.59c0.2-0.13,35.65,28.33,35.65,28.33"/>
		<path class="st8" d="M720.06,221.17c4.35-1.7,8.73-3.53,13.38-4.23c4.97-0.75,10.03-0.49,15.03-0.23"/>
		<line class="st8" x1="705.33" y1="276.6" x2="765.42" y2="254.76"/>
	</g>
</g>
<g class="st3">
	<g>
		<g>
			<path class="st5" d="M712.89,428.96c3.46,0,6.27,2.81,6.27,6.27v127.73c0,3.46-2.81,6.27-6.27,6.27H507.05
				c-3.46,0-6.27-2.81-6.27-6.27V435.23c0-3.46,2.81-6.27,6.27-6.27H712.89 M712.89,427.46H507.05c-4.29,0-7.77,3.49-7.77,7.77
				v127.73c0,4.29,3.49,7.77,7.77,7.77h205.84c4.29,0,7.77-3.49,7.77-7.77V435.23C720.66,430.95,717.18,427.46,712.89,427.46
				L712.89,427.46z"/>
		</g>
		<path class="st20" d="M712.89,569.23H507.05c-3.46,0-6.27-2.81-6.27-6.27V447.94h218.38v115.02
			C719.16,566.42,716.36,569.23,712.89,569.23z"/>
		<path class="st2" d="M517.5,439.01c0,2.25-1.82,4.07-4.07,4.07c-2.25,0-4.07-1.82-4.07-4.07c0-2.25,1.82-4.07,4.07-4.07
			C515.68,434.93,517.5,436.76,517.5,439.01z"/>
		<path class="st2" d="M533.29,439.01c0,2.25-1.82,4.07-4.07,4.07c-2.25,0-4.07-1.82-4.07-4.07c0-2.25,1.82-4.07,4.07-4.07
			C531.47,434.93,533.29,436.76,533.29,439.01z"/>
		<line class="st2" x1="500.78" y1="447.94" x2="719.16" y2="447.94"/>
	</g>
	<path class="st21" d="M688.53,541.97c-10.86-12.03-23.49-17.98-29.91-16.53c-9.44,2.13-7.73,26.23-7.46,35.91
		c-4.56-5.27-10.21-9.6-16.49-12.62c-4.73-2.28-10.12-3.83-15.22-2.59c-5.1,1.24-9.6,6.04-9,11.26
		c-11.88-17.68-28.29-32.29-47.21-42.05c-11.96-6.17-44.49-19.01-50.06-5.69c-6.11,14.61,28.54,59.58,28.54,59.58h167.93
		C709.65,569.23,698.34,552.83,688.53,541.97z"/>
	<g>
		<g>
			<g>
				<path class="st22" d="M478.68,413.46c-6.17-6.46-12.09-18.94-13.75-25.6c-1.46-5.86-2.77-11.85-5.54-17.26
					c-0.75-1.46-3.95-4.83-2.79-6.58c2.34-3.53,8.02,1.12,9.51,3.22c0.53,0.75,2.49,3.92,3.47,4.11c0.98,0.18,1.39-3.61,1.51-5.24
					c0.46-6.26,0.49-13.08-0.04-19.41c-0.55-6.52,0.38-12.24,2.43-12.54c2.07-0.31,1.97,0.92,2.34,1.33
					c0.33-2.07,2.21-4.51,3.43-3.82c0.74,0.42,1.01,1.34,1.11,2.19c0.1,0.84,0.6,2.45,0.6,2.45s1.18-4.4,3.32-1.91
					c1.08,1.26,2.74,7.93,3.8,10.05c-0.11-1.4-0.46-2.18-0.01-3.82c0.25-0.89,0.75-1.62,1.71-1.15c0.57,0.28,0.73,0.84,0.93,1.39
					c1.08,2.99,3.73,7.81,4.69,10.84c1,3.16,2.01,6.32,3.01,9.48c1.89,5.94,3.73,12.19,5.08,18.39c1.25,5.73,5.85,19.86,5.85,19.86"
					/>
				<path class="st8" d="M475.76,335.85c0.55,3.4,1.79,7.73,2.47,11.59c0.98,5.52,1.42,10.64,2.25,15.51"/>
				<path class="st8" d="M481.25,336.41c0.65,2.91,1.79,6.94,2.55,10.26c1.27,5.54,2.2,10.5,3.29,15.36"/>
				<path class="st8" d="M488.07,344.35c1.61,5.29,3.95,11.36,5.8,18.05"/>
				<path class="st8" d="M470.2,371.02c-0.41,2.79-0.62,5.76-2.48,8.2"/>
			</g>
			<path class="st23" d="M687.34,569.23c-2.18-5.84-4.52-11.97-7.8-17.32c-3.28-5.35-7.57-10.24-13.05-13.6
				c-2.46-1.5-5.12-2.68-7.77-3.85c-7.13-3.15-14.25-6.3-21.38-9.44l-34.98-13.65c-2.16-2.01-4.33-4.02-6.49-6.03
				c-4.18-3.89-8.34-7.79-12.48-11.73c-0.16-0.15-0.32-0.3-0.48-0.45c-31.66-30.22-55.21-63.99-75.78-103.39l-36.95,16.21
				c0,0,15.98,54.45,31.16,77.57c20.06,30.54,43.26,58.31,53.74,67.11c1.87,6.28,4.01,12.48,6.44,18.57H687.34z"/>
			<line class="st8" x1="476.15" y1="424.71" x2="515.78" y2="405.66"/>
			<line class="st8" x1="478.13" y1="402.5" x2="491.49" y2="431.5"/>
			<path class="st24" d="M490.68,408.6c0,1.45-1.17,2.62-2.62,2.62c-1.45,0-2.62-1.17-2.62-2.62s1.17-2.62,2.62-2.62
				C489.51,405.98,490.68,407.15,490.68,408.6z"/>
			<path class="st24" d="M633.5,568.45c1.82-2.37,3.64-4.75,5.47-7.12c1.97-2.56,3.94-5.13,6.16-7.47
				c6.48-6.84,15.22-11.71,24.58-12.73"/>
			<path class="st24" d="M554,547.25c0-9.47,3.16-18.87,8.61-26.59c6.86-9.72,16.96-16.7,29.16-17.05"/>
			<path class="st8" d="M554.94,550.29c-1.75-5.2-2.75-11.04-5.52-15.82"/>
		</g>
		<g>
			<path class="st22" d="M591.23,507.5l-2.3,29.06c0,0,9.77,9.95,23.2,3.47c13.43-6.48,23.23-18.81,23.23-18.81l-4.39-18.02"/>
			<path class="st22" d="M644.62,471.29c-1.36-4.25-3.9-8.13-7.33-10.93c-8.24-6.74-17.3-6.56-26.15-1.36
				c-7.69,4.52-18.24,11.65-24.11,18.47c-6.05,7.04-10.1,15.8-3.92,24.03c9.95,13.25,37.84,8.76,51.15-2.11
				c5.42-4.42,10.53-11.61,11.33-18.68C645.96,477.55,645.6,474.32,644.62,471.29z"/>
			<path class="st22" d="M609.44,462.69c-4.43,2.26-9.29,2.86-14.14,3.43c-2.33,0.28-5.42,1.06-5,4.12
				c0.27,1.98,1.99,3.68,3.42,4.89"/>
			<path class="st25" d="M590.1,492.87c0,0,0.81-1.82,1.21-2.72c0.77-1.75-1.74-2.93-2.94-3.53c-0.87-0.44-1.33-0.83-2.2-0.26
				c-0.22,0.15-1.49,1.37-1.76,1.15c-0.01-0.01-2.34-2.72-2.34-2.72c-1.81,2.83-2.97,8.19-2.71,11.37c0.26,3.18,1.49,6.35,3.77,8.59
				c0.91,0.9,2.34,2.2,3.44,2.86c9.16,5.51,20.58,5.09,30.54,1.22c3.08-1.2,6.07-2.79,8.31-5.22
				C594.92,503.16,590.1,492.87,590.1,492.87z"/>
			<path class="st25" d="M626.47,490.83c-0.14-0.03-0.27-0.06-0.41-0.08c-2.04-0.34-4.05-0.04-6.06-0.7
				c-1.62-0.53-3.12-1.54-4.01-2.99c-1.05-1.72,0.39-2.71,1.79-3.48c2.07-1.14,4.08-2.42,5.76-4.08c2.76-2.72,4.22-6.63,3.02-10.43
				c-1.3-4.12-5.36-6.54-8.51-9.16c-3.03-2.52-6.91-6.44-5.63-10.8c1.28-4.38,5.52-5.98,9.7-5.36c2.24,0.33,4.5,0.96,6.75,0.61
				c1.14-0.18,2.22-0.6,3.35-0.85c3.45-0.77,7.43,0.33,9.49,3.21c1.48,2.07,2.06,5.02,4.34,6.15c1.1,0.54,2.38,0.53,3.57,0.81
				c2.43,0.57,4.48,2.42,5.47,4.71c0.99,2.29,0.95,4.97,0.06,7.3c-1.59,4.19-3.98,6.29-2.02,10.91c4.55,10.73,6.46,23.91-4.4,31.63
				c-2.86,2.03-6.44,3.08-8.82,5.65c-1.48,1.61-2.69,3.89-4.87,4.13c-1.46,0.16-2.84-0.75-3.84-1.82c-0.9-0.96-1.6-2.09-2.3-3.21
				c-0.96-1.55-1.94-3.17-2.14-4.98c-0.28-2.59,1.06-5.04,2.28-7.34c1.15-2.17,3.46-6.66,0.73-8.45
				C628.82,491.59,627.61,491.08,626.47,490.83z"/>
			<g>
				<path class="st22" d="M624.48,491.13c3.15-2.37,8.87-0.1,10.04,3.43c2.82,8.49-10.78,15.57-16.75,10.31
					c-1.69-1.49-2.97-4.52-1.48-6.69"/>
				<line class="st8" x1="629.62" y1="499.19" x2="619.99" y2="497.55"/>
				<path class="st8" d="M630.6,491.04c-1.92-0.73-4.09-0.85-6.12-0.33"/>
				<path class="st8" d="M616.51,498.27c-1.07,1.84-0.76,4.1,0.41,5.8c2.13,3.11,7.27,3.12,10.38,1.79"/>
			</g>
			<path class="st23" d="M640.1,520.28c-30.66,3.63-49.43,17.68-49.43,17.68l5.33,24.36c27.42-26.08,54.11-31.96,54.37-32.24
				L640.1,520.28z"/>
			<path class="st23" d="M589.78,522.39l-11.55,7.41c0,0-1.99,20.72,1.8,31.74l10.63-23.59L589.78,522.39z"/>
			<path class="st8" d="M590.67,537.96l5.33,24.36c27.42-26.08,54.11-31.96,54.37-32.24"/>
			<path class="st8" d="M589.78,522.39l-11.55,7.41c0,0-1.99,20.72,1.8,31.74l10.63-23.59"/>
		</g>
		<path class="st8" d="M475.99,456.52c3.1,11.02,7.69,21.61,13.61,31.4"/>
		<path class="st8" d="M477,475.44c1.95,7.08,4.28,14.06,6.99,20.89"/>
		<path class="st8" d="M666.31,490.29c0.17,5.05-1.8,10.01-4.8,14.07c-3,4.06-7,7.29-11.22,10.06"/>
		<path class="st8" d="M662.88,514.24c4.23-2.4,7.83-5.88,10.38-10.02"/>
	</g>
</g>
<g>
	<g>
		<g>
			<path class="st5" d="M475.22,109.34c3.46,0,6.27,2.81,6.27,6.27v142.42c0,3.46-2.81,6.27-6.27,6.27H200.4
				c-3.46,0-6.27-2.81-6.27-6.27V115.61c0-3.46,2.81-6.27,6.27-6.27H475.22 M475.22,107.84H200.4c-4.29,0-7.77,3.49-7.77,7.77
				v142.42c0,4.29,3.49,7.77,7.77,7.77h274.82c4.29,0,7.77-3.49,7.77-7.77V115.61C482.99,111.32,479.5,107.84,475.22,107.84
				L475.22,107.84z"/>
		</g>
		<path class="st4" d="M475.22,264.3H200.4c-3.46,0-6.27-2.81-6.27-6.27V128.32h287.36v129.71
			C481.49,261.49,478.68,264.3,475.22,264.3z"/>
		<path class="st2" d="M210.84,119.38c0,2.25-1.82,4.07-4.07,4.07c-2.25,0-4.07-1.82-4.07-4.07c0-2.25,1.82-4.07,4.07-4.07
			C209.02,115.31,210.84,117.13,210.84,119.38z"/>
		<path class="st2" d="M226.63,119.38c0,2.25-1.82,4.07-4.07,4.07c-2.25,0-4.07-1.82-4.07-4.07c0-2.25,1.82-4.07,4.07-4.07
			C224.81,115.31,226.63,117.13,226.63,119.38z"/>
		<line class="st2" x1="194.13" y1="128.32" x2="481.49" y2="128.32"/>
	</g>
	<path class="st26" d="M458.39,244.56c-2.89-3.83-7.82-7.36-11.67-4.72c-3.23,2.21-3.35,7.21-3.1,11.36
		c-9.16-12.97-20.06-24.47-32.24-34.02c-6.6-5.18-14.19-9.96-22.3-9.34c-8.11,0.62-12.32,12-10.18,20.56
		c-22.14-29.32-46.83-50.11-72.54-68.1c-8.78-6.14-18.51-12.06-28.93-15.56c-11.07-3.72-26.37-8.09-36.38,0.56
		c-4.29,3.7-6.52,9.36-7.13,14.99c-0.75,6.97,0.43,14.34,2.33,21.05c4.54,16.07,11.83,31.22,20.29,45.5
		c8.46,14.28,27.06,37.73,27.06,37.73h183.6C465.78,257.25,462.74,250.33,458.39,244.56z"/>
	<g>
		<g>
			<path class="st15" d="M361.84,235.84c0,0-35.25-30.57-50.37-35.75c-15.12-5.18-46.18,3.14-46.57,3.14
				c-0.39,0-27.81,61.07-27.81,61.07h112.45L361.84,235.84z"/>
			<g>
				<path class="st27" d="M428.8,318.84c2.57,2.68,5.24,5.27,8.01,7.75c2.67,2.39,5.59,4.53,8.19,6.98c0.64,0.6,1.23,1.27,1.81,1.93
					c2.13,2.41,4.27,4.84,5.82,7.65c0.21,0.37,0.41,0.76,0.72,1.06c0.31,0.29,0.76,0.48,1.17,0.36c0.43-0.13,0.7-0.54,0.88-0.95
					c0.75-1.69,0.56-3.64,0.1-5.43c-0.29-1.15-0.7-2.27-1.02-3.41c-0.27-0.95-0.66-1.97-0.51-2.95c7.55,3.15,13.69,8.87,20.58,13.29
					c1.41,0.91,4.52,1.24,5.04,0c0.69-1.65-9.35-9.09-13.96-14.01c3.47,1.77,7.15,3.63,10.28,5.96c2.17,1.62,4.54,2.99,7.13,3.82
					c1.45,0.46,4.79,1.15,4.11-1.51c-0.2-0.78-0.79-1.4-1.37-1.96c-4.5-4.37-9.93-7.45-14.65-11.57c5.32,2.1,10.2,5.86,15.92,6.06
					c0.56,0.02,1.16-0.01,1.6-0.35c0.67-0.52,0.89-1.25,0.46-1.97c-0.44-0.73-1.19-1.2-1.91-1.64c-5.3-3.25-10.83-6.83-16.13-10.08
					c2.85,0.77,5.49,2.17,8.22,3.3c2.73,1.13,5.68,2,8.61,1.63c0.94-0.12,2.12-0.72,1.9-1.65c-0.1-0.45-0.51-0.75-0.89-1.01
					c-6.45-4.41-12.89-8.81-19.34-13.22c-1.81-1.24-3.62-2.47-5.47-3.64c-2.23-1.41-4.81-2.45-6.88-4.03
					c-1.62-1.23-3.58-2.15-5.31-3.22c-4.29-2.64-8.45-5.48-12.47-8.5"/>
				<path class="st8" d="M454.11,331.8c-2.03-0.89-4.09-1.72-6.18-2.46"/>
				<path class="st8" d="M465.93,331.08c-2.75-1.88-5.61-3.62-8.54-5.21"/>
				<path class="st8" d="M471.14,325.73c-2.26-1.43-4.52-2.87-6.78-4.3"/>
				<path class="st8" d="M473.63,319.26c-1.68-0.93-3.31-1.97-4.85-3.12"/>
			</g>
			<path class="st15" d="M319.59,201.04c13.92,4.38,20.91,4.78,33.37,12.5c13.24,8.21,45.98,42.71,45.98,42.71
				s44.18,31.15,60.74,42.93l-29.75,28.35c-32.9-19.67-66.68-43.15-91.62-72.26"/>
			<path class="st27" d="M269.07,258.38c0,0,13.81-7.41,19.89-8.93c8.42-2.12,18.4-2.71,21.08-1.9c1.25,0.38,5.97,2.32,8.44,5.21
				c2.62,1.15,3.69,1.72,5.24,2.38s2.29,2.49,3.92,3.88c1.63,1.4,3.42,5.28,3.42,5.28s-12.43,0.04-15.92,0.16
				c-3.49,0.12-7.26,6.78-15.07,9.14"/>
			<path class="st15" d="M297.52,195.55c-9.58-0.08-18.91-2.57-28.47-2.58c-17.36-0.01-27.33,9.1-35.78,21.73
				c-6.4,9.56-12.42,21.33-16.95,31.83c-5.29,12.25-11.21,25.9-12.76,39.28c-0.71,6.12,0.17,12.44,3,17.88
				c5.24,10.06,16.87,11.82,23.66,12.58c6.79,0.75,18.68-1.54,24.5-5.15c30.65-19.01,50.92-38.06,50.92-38.06l-32.98-16.9
				l-15.82,6.19l19.98-36.93"/>
			<line class="st8" x1="275.21" y1="228.41" x2="256.85" y2="262.34"/>
			<path class="st8" d="M272.67,256.15c-9.46,3.67-18.91,7.34-28.37,11.01c-6.46,2.51-12.78,7.46-17.93,12.07"/>
			<line class="st8" x1="261.34" y1="260.76" x2="295.5" y2="281.78"/>
			<path class="st8" d="M353.17,244.31c-4.52,7.48-10.79,19.98-10.79,19.98"/>
			<line class="st8" x1="447.62" y1="290.64" x2="414.47" y2="318.24"/>
			<path class="st8" d="M317.19,256.29c2.4,0.64,4.85,1.12,7.31,1.44c0.76,0.1,1.55,0.2,2.2,0.61"/>
			<path class="st8" d="M319.31,253.39c-0.43-0.21-0.88-0.38-1.33-0.54c-2.38-0.87-4.83-1.76-7.36-1.69"/>
			<path class="st8" d="M311.59,265.83c1.29-0.93,2.87-1.35,4.45-1.51c3.27-0.34,6.77,0.37,9.91-0.86"/>
			<path class="st8" d="M188.74,288.17c0.53,12.93,8.78,25.26,20.54,30.67"/>
			<path class="st8" d="M179.59,287.61c0.27,8.44,3.75,16.62,9.16,21.49"/>
			<path class="st8" d="M365.59,205.74c10.09,8.54,19.45,17.92,27.97,28.02"/>
			<path class="st8" d="M365.82,195.62c7.03,5.22,13.48,11.24,19.18,17.89"/>
			<path class="st15" d="M284.38,212.76c-5.33-1.91-10.27-4.76-15.14-7.65c-2.07-1.22-4.16-2.48-5.82-4.21
				c-1.67-1.73-2.9-4.02-2.85-6.42c0.04-2.21,1.15-4.28,2.53-6.01c4.3-5.41,11.24-8.22,18.12-8.84c6.88-0.62,13.78,0.7,20.5,2.29
				c10.11,2.38,20.42,5.55,28.22,12.41c2.19,1.93,4.18,4.17,5.41,6.82c1.69,3.66,1.82,7.9,1.09,11.87
				c-0.72,3.97-2.25,7.75-3.76,11.49"/>
		</g>
		<g>
			<path class="st27" d="M311.72,172.84l-13.59,3.96l0.3,6.83l-6.88,11.73c0,0,16.26,6.3,22.37,19.14c6.66,0.99,9.33-4.41,9.33-4.41
				l6.55-15.69"/>
			<path class="st27" d="M343.69,186.47c1.17-6.74,2.58-14.02,2.47-19.39c-0.09-4.54-0.79-11.4-3.72-14.96
				c-3.78-4.58-10.65-4.65-16.42-5.3c-9.48-1.06-16.02,7.53-18.83,15.55c-2.15,6.16-1.98,12.17,0.02,18.52
				c2.61,8.3,11.86,19.44,23.89,18.08C337.49,198.25,342.45,193.61,343.69,186.47z"/>
			<path d="M332.06,171.75c-0.12,1-0.83,1.74-1.6,1.65c-0.77-0.09-1.29-0.97-1.18-1.98c0.12-1,0.83-1.74,1.6-1.65
				C331.65,169.87,332.18,170.75,332.06,171.75z"/>
			<path d="M345.18,173c-0.12,1-0.83,1.74-1.6,1.65c-0.77-0.09-1.29-0.97-1.18-1.98c0.12-1,0.83-1.74,1.6-1.65
				C344.76,171.11,345.29,172,345.18,173z"/>
			<path class="st8" d="M339.36,170.78c-0.29,2.32-0.05,4.68-0.05,7.01c0,1.44,0.05,3.98-1.82,4.31c-1.23,0.21-3.9-0.52-3.9-0.52"/>
			<path class="st5" d="M334.64,185.69l-4.91-4.14c0,0-3.61,4.71-1.74,6.42C330.99,190.74,334.64,185.69,334.64,185.69z"/>
			<path class="st25" d="M342.62,153.56c2.17,3.39,3.36,6.12,3.45,16.29c1.04-0.26,2.09-0.52,3.02-1.05
				c0.93-0.52,1.75-1.35,2.02-2.38c0.51-1.91-0.92-3.81-1-5.79c-0.06-1.43,0.6-2.79,1.37-3.99c0.6-0.92,1.3-1.85,1.44-2.94
				c0.2-1.54-0.76-3-1.91-4.04c-2.57-2.33-6-3.25-8.95-4.96c-1.43-0.83-2.19-2.12-3.51-3.09c-1.5-1.1-3.1-2.05-4.77-2.85
				c-3.87-1.85-8.11-2.84-12.38-3.02c-8.28-0.35-16.47,2.74-22.24,8.53c-7.63,7.65-10.7,22.24-5.91,30.69
				c2.7,4.76,5.18,8.68,5.18,8.68c0.31,0.49,6.91-5.44,7.32-6.25c0.41-0.82,0.56-1.73,0.82-2.61c0.85-3,3.84-3.5,6.39-4.44
				c3.73-1.36,5.59-4.68,6.31-8.43c0.42-2.15,0.48-4.36,0.54-6.55c-0.01,0.49,3,1.55,3.45,1.69c4.44,1.37,9.46,1.61,13.97,0.4
				c1.33-0.36,2.75-0.82,3.8-1.73C341.31,155.47,343.1,154.05,342.62,153.56z"/>
			<path class="st8" d="M314.86,192.96c0.24,0.17,4.95,5.32,13.98,6.13"/>
			<path class="st8" d="M324.11,164.62c0.8-1.57,2.41-2.71,4.16-2.94c1.75-0.23,3.6,0.45,4.78,1.77"/>
			<path class="st8" d="M340.79,164.84c0.6-1.33,1.86-2.18,2.96-1.99c1.1,0.19,1.93,1.41,2,2.84"/>
			<g>
				<path class="st28" d="M336.79,174.34c-1.15,3.41-4.78,5.22-8.11,4.05c-3.33-1.18-5.1-4.9-3.95-8.31
					c1.15-3.41,4.78-5.22,8.11-4.05C336.17,167.2,337.93,170.92,336.79,174.34z"/>
				<path class="st28" d="M349.02,175.93c-0.62,3.55-2.91,6.11-5.12,5.7c-2.21-0.4-3.5-3.61-2.88-7.16c0.62-3.55,2.91-6.11,5.12-5.7
					C348.35,169.17,349.64,172.38,349.02,175.93z"/>
				<line class="st28" x1="341.6" y1="172.59" x2="337.12" y2="171.75"/>
				<line class="st28" x1="324.98" y1="169.43" x2="311.47" y2="170.47"/>
			</g>
			<g>
				<path class="st27" d="M315.33,172.9c-0.07-3.28-4.49-5.84-7.4-4.8c-6.99,2.51-4.64,15.03,1.86,16.23
					c1.84,0.34,4.48-0.38,5.13-2.47"/>
				<line class="st8" x1="307.43" y1="173.69" x2="313.44" y2="179.13"/>
				<path class="st8" d="M312.25,168.86c1.46,0.88,2.65,2.23,3.36,3.83"/>
				<path class="st8" d="M303.94,178.43c0.9,2.68,2.74,5.51,5.65,5.99c2.02,0.33,4.34-0.55,5.16-2.65"/>
			</g>
			<g>
				<path class="st29" d="M288.51,160c0.14-4.41,0.62-8.85,2.05-13.01c1.43-4.17,3.88-8.08,7.4-10.72c1.95-1.47,4.18-2.51,6.44-3.44
					c1.9-0.78,3.84-1.48,5.85-1.91c7.53-1.6,15.33,0.78,22.39,3.87"/>
				<path class="st29" d="M336.01,135.37c-1.86-1.79-4.26-2.95-6.77-3.59c-1.49-0.38-3.03-0.59-4.57-0.51
					c-0.8,0.04-1.59,0.16-2.38,0.31c-5.46,1.07-10.38,3.94-15.11,6.86c-6.32,3.91-12.62,8.12-17.26,13.92
					c-1.67,2.1-3.15,4.52-3.3,7.19c-0.08,1.48,0.25,2.96,0.74,4.37c0.82,2.37,2.75,5.75,4.36,7.67c13.89-13,29.5-23.28,47.52-29.39
					C339.14,139.62,337.87,137.16,336.01,135.37z"/>
				<path class="st8" d="M289.41,153.04c0,0,11.73-16.35,33.5-21.79"/>
				<path class="st8" d="M295.5,154.89c1.72,2.97,3.48,5.99,6.03,8.28"/>
				<path class="st8" d="M309.21,142.59c1.78,3.75,3.99,7.31,6.57,10.59"/>
				<path class="st8" d="M323.75,134.78c3,3.09,5.56,6.6,7.59,10.4"/>
				<path class="st8" d="M328.76,133.01c2.58,3.17,4.84,6.94,6.52,10.62"/>
				<path class="st8" d="M288.69,156.72c0.84,4.71,3.6,8.7,7.12,11.54"/>
			</g>
			<path class="st8" d="M280.66,191c6.64,2.48,13.35,4.99,19.26,8.91c5.91,3.92,11.89,9.42,14,16.19"/>
			<path class="st8" d="M318.53,214.04c3.02-1.45,5.48-4.05,6.76-7.15"/>
			<path class="st8" d="M260.56,193.78c3.07,17.64,26.34,14.26,37.18,19.73"/>
			<path class="st8" d="M336.83,206.59c-0.42,2.42-1.26,4.84-2.87,6.7c-2.41,2.8-6.17,3.95-9.72,4.98"/>
			<path class="st8" d="M327.45,214.04c1.61,11.09,3.25,23.52,2.73,34.72"/>
			<path class="st8" d="M302.79,211.49c1.68,4.61,0.89,17.11,0.71,28.38"/>
		</g>
	</g>
</g>
</svg>
